<mxfile host="Electron" agent="Mozilla/5.0 (X11; Linux x86_64) AppleWebKit/537.36 (KHTML, like Gecko) draw.io/26.0.4 Chrome/130.0.6723.170 Electron/33.3.1 Safari/537.36" version="26.0.4">
  <diagram name="Page-1" id="THGfsXJmiCKhB4GpBu16">
    <mxGraphModel dx="1434" dy="955" grid="1" gridSize="10" guides="1" tooltips="1" connect="1" arrows="1" fold="1" page="1" pageScale="1" pageWidth="827" pageHeight="1169" math="0" shadow="0">
      <root>
        <mxCell id="0" />
        <mxCell id="1" parent="0" />
        <mxCell id="wCI7N2QRY2yCo1gzNA0D-8" value="username, password" style="edgeStyle=orthogonalEdgeStyle;rounded=0;orthogonalLoop=1;jettySize=auto;html=1;exitX=0.5;exitY=0;exitDx=0;exitDy=0;entryX=0.5;entryY=1;entryDx=0;entryDy=0;curved=1;" edge="1" parent="1" source="AUftsHGk3qJ5Cm6R8eBR-4" target="wCI7N2QRY2yCo1gzNA0D-1">
          <mxGeometry relative="1" as="geometry" />
        </mxCell>
        <mxCell id="AUftsHGk3qJ5Cm6R8eBR-4" value="Accounts" style="html=1;dashed=0;whiteSpace=wrap;shape=partialRectangle;right=0;" parent="1" vertex="1">
          <mxGeometry x="280" y="750" width="100" height="40" as="geometry" />
        </mxCell>
        <mxCell id="wCI7N2QRY2yCo1gzNA0D-2" value="username,&amp;nbsp;&lt;br&gt;password" style="edgeStyle=orthogonalEdgeStyle;rounded=0;orthogonalLoop=1;jettySize=auto;html=1;exitX=0.5;exitY=1;exitDx=0;exitDy=0;curved=1;" edge="1" parent="1" source="AUftsHGk3qJ5Cm6R8eBR-9" target="wCI7N2QRY2yCo1gzNA0D-1">
          <mxGeometry relative="1" as="geometry" />
        </mxCell>
        <mxCell id="wCI7N2QRY2yCo1gzNA0D-6" value="username,&lt;br&gt;password" style="edgeStyle=orthogonalEdgeStyle;rounded=0;orthogonalLoop=1;jettySize=auto;html=1;exitX=0.5;exitY=1;exitDx=0;exitDy=0;curved=1;" edge="1" parent="1" source="AUftsHGk3qJ5Cm6R8eBR-9" target="wCI7N2QRY2yCo1gzNA0D-5">
          <mxGeometry relative="1" as="geometry" />
        </mxCell>
        <mxCell id="wCI7N2QRY2yCo1gzNA0D-13" value="completion" style="edgeStyle=orthogonalEdgeStyle;rounded=0;orthogonalLoop=1;jettySize=auto;html=1;exitX=1;exitY=0.5;exitDx=0;exitDy=0;entryX=0.5;entryY=0;entryDx=0;entryDy=0;curved=1;" edge="1" parent="1" source="AUftsHGk3qJ5Cm6R8eBR-9" target="wCI7N2QRY2yCo1gzNA0D-10">
          <mxGeometry relative="1" as="geometry">
            <Array as="points">
              <mxPoint x="230" y="420" />
              <mxPoint x="560" y="420" />
            </Array>
            <mxPoint as="offset" />
          </mxGeometry>
        </mxCell>
        <mxCell id="wCI7N2QRY2yCo1gzNA0D-14" value="task, username" style="edgeStyle=orthogonalEdgeStyle;rounded=0;orthogonalLoop=1;jettySize=auto;html=1;exitX=1;exitY=0.5;exitDx=0;exitDy=0;curved=1;" edge="1" parent="1" source="AUftsHGk3qJ5Cm6R8eBR-9" target="wCI7N2QRY2yCo1gzNA0D-9">
          <mxGeometry x="0.0175" y="-20" relative="1" as="geometry">
            <Array as="points">
              <mxPoint x="660" y="360" />
            </Array>
            <mxPoint as="offset" />
          </mxGeometry>
        </mxCell>
        <mxCell id="AUftsHGk3qJ5Cm6R8eBR-9" value="User" style="whiteSpace=wrap;html=1;aspect=fixed;" parent="1" vertex="1">
          <mxGeometry x="150" y="320" width="80" height="80" as="geometry" />
        </mxCell>
        <mxCell id="wCI7N2QRY2yCo1gzNA0D-17" value="task,&amp;nbsp;&lt;br&gt;completion" style="edgeStyle=orthogonalEdgeStyle;rounded=0;orthogonalLoop=1;jettySize=auto;html=1;exitX=1;exitY=0.5;exitDx=0;exitDy=0;entryX=1;entryY=0.5;entryDx=0;entryDy=0;curved=1;" edge="1" parent="1" source="AUftsHGk3qJ5Cm6R8eBR-12" target="wCI7N2QRY2yCo1gzNA0D-18">
          <mxGeometry relative="1" as="geometry">
            <mxPoint x="760" y="350" as="targetPoint" />
            <Array as="points">
              <mxPoint x="760" y="810" />
              <mxPoint x="760" y="320" />
            </Array>
          </mxGeometry>
        </mxCell>
        <mxCell id="AUftsHGk3qJ5Cm6R8eBR-12" value="Tasks" style="html=1;dashed=0;whiteSpace=wrap;shape=partialRectangle;right=0;" parent="1" vertex="1">
          <mxGeometry x="470" y="790" width="100" height="40" as="geometry" />
        </mxCell>
        <mxCell id="wCI7N2QRY2yCo1gzNA0D-1" value="Logging In" style="ellipse;whiteSpace=wrap;html=1;aspect=fixed;" vertex="1" parent="1">
          <mxGeometry x="360" y="490" width="80" height="80" as="geometry" />
        </mxCell>
        <mxCell id="wCI7N2QRY2yCo1gzNA0D-7" value="username,&lt;br&gt;password" style="edgeStyle=orthogonalEdgeStyle;rounded=0;orthogonalLoop=1;jettySize=auto;html=1;exitX=0.5;exitY=1;exitDx=0;exitDy=0;curved=1;" edge="1" parent="1" source="wCI7N2QRY2yCo1gzNA0D-5" target="AUftsHGk3qJ5Cm6R8eBR-4">
          <mxGeometry relative="1" as="geometry" />
        </mxCell>
        <mxCell id="wCI7N2QRY2yCo1gzNA0D-5" value="Signing Up" style="ellipse;whiteSpace=wrap;html=1;aspect=fixed;" vertex="1" parent="1">
          <mxGeometry x="200" y="545" width="80" height="80" as="geometry" />
        </mxCell>
        <mxCell id="wCI7N2QRY2yCo1gzNA0D-16" value="task, id, username" style="edgeStyle=orthogonalEdgeStyle;rounded=0;orthogonalLoop=1;jettySize=auto;html=1;exitX=0.5;exitY=1;exitDx=0;exitDy=0;entryX=0.75;entryY=0;entryDx=0;entryDy=0;curved=1;" edge="1" parent="1" source="wCI7N2QRY2yCo1gzNA0D-9" target="AUftsHGk3qJ5Cm6R8eBR-12">
          <mxGeometry x="0.1077" relative="1" as="geometry">
            <Array as="points">
              <mxPoint x="660" y="720" />
              <mxPoint x="545" y="720" />
            </Array>
            <mxPoint as="offset" />
          </mxGeometry>
        </mxCell>
        <mxCell id="wCI7N2QRY2yCo1gzNA0D-9" value="Creating Tasks" style="ellipse;whiteSpace=wrap;html=1;aspect=fixed;" vertex="1" parent="1">
          <mxGeometry x="620" y="500" width="80" height="80" as="geometry" />
        </mxCell>
        <mxCell id="wCI7N2QRY2yCo1gzNA0D-12" value="completion" style="edgeStyle=orthogonalEdgeStyle;rounded=0;orthogonalLoop=1;jettySize=auto;html=1;exitX=0.5;exitY=1;exitDx=0;exitDy=0;entryX=0.5;entryY=0;entryDx=0;entryDy=0;curved=1;" edge="1" parent="1" source="wCI7N2QRY2yCo1gzNA0D-10" target="AUftsHGk3qJ5Cm6R8eBR-12">
          <mxGeometry relative="1" as="geometry" />
        </mxCell>
        <mxCell id="wCI7N2QRY2yCo1gzNA0D-10" value="Toggling Task Completion" style="ellipse;whiteSpace=wrap;html=1;aspect=fixed;" vertex="1" parent="1">
          <mxGeometry x="520" y="510" width="80" height="80" as="geometry" />
        </mxCell>
        <mxCell id="wCI7N2QRY2yCo1gzNA0D-11" value="id" style="edgeStyle=orthogonalEdgeStyle;rounded=0;orthogonalLoop=1;jettySize=auto;html=1;exitX=0.5;exitY=0;exitDx=0;exitDy=0;entryX=0;entryY=0.5;entryDx=0;entryDy=0;curved=1;" edge="1" parent="1" source="AUftsHGk3qJ5Cm6R8eBR-12" target="wCI7N2QRY2yCo1gzNA0D-10">
          <mxGeometry x="0.2353" relative="1" as="geometry">
            <Array as="points">
              <mxPoint x="470" y="790" />
              <mxPoint x="470" y="550" />
            </Array>
            <mxPoint as="offset" />
          </mxGeometry>
        </mxCell>
        <mxCell id="wCI7N2QRY2yCo1gzNA0D-19" value="task, completion" style="edgeStyle=orthogonalEdgeStyle;rounded=0;orthogonalLoop=1;jettySize=auto;html=1;exitX=0;exitY=0.5;exitDx=0;exitDy=0;entryX=1;entryY=0.5;entryDx=0;entryDy=0;curved=1;" edge="1" parent="1" source="wCI7N2QRY2yCo1gzNA0D-18" target="AUftsHGk3qJ5Cm6R8eBR-9">
          <mxGeometry x="-0.3023" relative="1" as="geometry">
            <Array as="points">
              <mxPoint x="330" y="320" />
              <mxPoint x="330" y="360" />
            </Array>
            <mxPoint as="offset" />
          </mxGeometry>
        </mxCell>
        <mxCell id="wCI7N2QRY2yCo1gzNA0D-18" value="Displaying Tasks" style="ellipse;whiteSpace=wrap;html=1;aspect=fixed;" vertex="1" parent="1">
          <mxGeometry x="620" y="280" width="80" height="80" as="geometry" />
        </mxCell>
      </root>
    </mxGraphModel>
  </diagram>
</mxfile>
